HIERARCHY
ROOT Hips
{
	OFFSET	0.000000	0.000000	0.000000
	CHANNELS 6 Xposition Yposition Zposition Zrotation Xrotation Yrotation
	JOINT LeftUpLeg
	{
		OFFSET	12.830505	-7.049846	-1.643436
		CHANNELS 3 Zrotation Xrotation Yrotation
		JOINT LeftLeg
		{
			OFFSET	0.620834	-39.957500	-1.919341
			CHANNELS 3 Zrotation Xrotation Yrotation
			JOINT LeftFoot
			{
				OFFSET	-0.413890	-44.704761	-3.870325
				CHANNELS 3 Zrotation Xrotation Yrotation
				JOINT LeftFootHeel
				{
					OFFSET	0.164738	-8.918193	-6.555130
					CHANNELS 3 Zrotation Xrotation Yrotation
					End Site
					{
						OFFSET	-0.604053	0.000000	21.044330
					}
				}
			}
		}
	}
	JOINT RightUpLeg
	{
		OFFSET	-12.830505	-7.049846	-1.643436
		CHANNELS 3 Zrotation Xrotation Yrotation
		JOINT RightLeg
		{
			OFFSET	-0.620834	-39.957500	-1.919341
			CHANNELS 3 Zrotation Xrotation Yrotation
			JOINT RightFoot
			{
				OFFSET	0.413890	-44.704761	-3.870325
				CHANNELS 3 Zrotation Xrotation Yrotation
				JOINT RightFootHeel
				{
					OFFSET	-0.164738	-8.918193	-6.555130
					CHANNELS 3 Zrotation Xrotation Yrotation
					End Site
					{
						OFFSET	0.604053	0.000000	21.044330
					}
				}
			}
		}
	}
	JOINT Spine
	{
		OFFSET	0.000000	12.498170	1.820647
		CHANNELS 3 Zrotation Xrotation Yrotation
		JOINT Spine1
		{
			OFFSET	0.000000	7.620000	0.000000
			CHANNELS 3 Zrotation Xrotation Yrotation
			JOINT LeftShoulder
			{
				OFFSET	9.167800	29.136339	-5.551221
				CHANNELS 3 Zrotation Xrotation Yrotation
				JOINT LeftArm
				{
					OFFSET	12.133453	-3.880866	1.461963
					CHANNELS 3 Zrotation Xrotation Yrotation
					JOINT LeftForeArm
					{
						OFFSET	2.507115	-31.664908	-1.069404
						CHANNELS 3 Zrotation Xrotation Yrotation
						JOINT LeftHand
						{
							OFFSET	4.116172	-24.512624	5.009439
							CHANNELS 3 Zrotation Xrotation Yrotation
							End Site
							{
								OFFSET	-0.213136	-10.931856	2.182134
							}
						}
					}
				}
			}
			JOINT RightShoulder
			{
				OFFSET	-9.167800	29.136339	-5.551221
				CHANNELS 3 Zrotation Xrotation Yrotation
				JOINT RightArm
				{
					OFFSET	-12.133453	-3.880866	1.461963
					CHANNELS 3 Zrotation Xrotation Yrotation
					JOINT RightForeArm
					{
						OFFSET	-2.507115	-31.664908	-1.069404
						CHANNELS 3 Zrotation Xrotation Yrotation
						JOINT RightHand
						{
							OFFSET	-4.116172	-24.512624	5.009439
							CHANNELS 3 Zrotation Xrotation Yrotation
							End Site
							{
								OFFSET	0.213136	-10.931856	2.182134
							}
						}
					}
				}
			}
			JOINT Neck
			{
				OFFSET	0.000000	32.926272	-3.635654
				CHANNELS 3 Zrotation Xrotation Yrotation
				JOINT Head
				{
					OFFSET	0.000000	12.481178	4.646143
					CHANNELS 3 Zrotation Xrotation Yrotation
					End Site
					{
						OFFSET	0.000000	17.715204	-2.222063
					}
				}
			}
		}
	}
}
MOTION
Frames:     14
Frame Time: 0.016667
0.000000	101.360333	0.000000	2.374953	2.996057	-43.327461	11.336174	-20.329704	13.010468	0.485933	17.894873	4.892649	-7.507142	0.917042	-2.586484	0.	0.	0.	-12.678932	-12.306836	-9.988408	3.558784	15.573064	-4.661620	6.557702	-3.454626	12.776961	0.	0.	0.	0.000000	0.000000	-0.000003	3.339505	11.786562	4.118261	8.189898	-5.191068	1.497118	-3.144965	-14.547267	-6.180648	60.380936	-130.967438	69.329590	-5.302107	-4.938511	4.974760	-4.090358	-2.455637	-10.569061	-7.720555	-31.983837	8.757515	-67.532913	-126.368744	-77.858627	-6.869581	-4.757607	12.405998	-3.419438	2.141527	9.870361	-4.362885	-6.233601	2.244165	
0.012247	101.353279	0.000155	2.350152	2.980672	-43.323742	11.336381	-20.339943	13.009226	0.499973	17.949553	4.885626	-7.507535	0.898219	-2.591057	0.	0.	0.	-12.675525	-12.308766	-9.992909	3.546861	15.623647	-4.634957	6.567845	-3.475604	12.760902	0.	0.	0.	-0.000000	0.000000	0.000000	3.351094	11.811869	4.132447	8.180226	-5.221268	1.482213	-3.096775	-14.606189	-6.200248	60.401985	-130.965485	69.341568	-5.413861	-4.923494	4.944420	-4.092119	-2.504971	-10.611734	-7.821996	-32.071430	8.801974	-67.588234	-126.315620	-77.887291	-6.786335	-4.729539	12.413663	-3.345326	2.408773	9.883320	-4.359716	-6.160356	2.086356	
0.031846	101.339288	0.008095	2.277540	2.935801	-43.312897	11.340872	-20.336864	12.998805	0.542892	18.085909	4.838885	-7.524333	0.832743	-2.575335	0.	0.	0.	-12.658359	-12.271653	-9.993486	3.524633	15.711064	-4.545324	6.585289	-3.523974	12.689329	0.	0.	0.	-0.000002	0.000000	-0.000003	3.377321	11.892262	4.130084	8.162391	-5.315672	1.485577	-2.981435	-14.765418	-6.203130	60.584782	-130.972717	69.502213	-5.694695	-4.932148	4.883477	-4.092219	-2.554379	-10.644823	-7.900818	-32.147461	8.826285	-67.655312	-126.265022	-77.923889	-6.664350	-4.708503	12.433361	-3.211618	2.735561	9.877347	-4.092190	-5.184509	1.673687	
0.021295	101.336226	0.013056	2.253208	2.920989	-43.309277	11.343056	-20.331018	12.994123	0.565036	18.147703	4.804114	-7.541193	0.788683	-2.555269	0.	0.	0.	-12.650031	-12.244356	-9.989705	3.530090	15.730734	-4.524928	6.580410	-3.546368	12.669857	0.	0.	0.	-0.000001	-0.000001	-0.000005	3.385684	11.919522	4.126006	8.152950	-5.374093	1.494038	-2.914986	-14.839337	-6.231116	60.685699	-130.938705	69.573433	-5.823105	-4.959215	4.869703	-4.091314	-2.578514	-10.655581	-7.967125	-32.238194	8.801030	-67.733047	-126.214928	-77.974907	-6.524355	-4.700091	12.465961	-3.211617	2.735562	9.877348	-3.760646	-4.142217	1.352991	
0.036967	101.327767	0.003445	2.246135	2.916700	-43.308231	11.341677	-20.346230	12.995684	0.589476	18.188532	4.789073	-7.557128	0.770299	-2.552737	0.	0.	0.	-12.655539	-12.287013	-10.000466	3.522775	15.805798	-4.501526	6.585507	-3.570923	12.657600	0.	0.	0.	0.000000	-0.000000	0.000001	3.388126	11.927433	4.124827	8.144811	-5.424490	1.501323	-2.865601	-14.904819	-6.269718	60.771683	-130.882233	69.599922	-5.893670	-4.994188	4.828548	-4.091012	-2.586636	-10.659210	-8.031124	-32.313080	8.766491	-67.779518	-126.178673	-77.995598	-6.421217	-4.698470	12.489919	-2.837193	3.548215	9.887048	-3.908997	-3.763701	0.853614	
0.037963	101.327564	0.002806	2.239063	2.912410	-43.307175	11.343041	-20.338554	12.993279	0.589477	18.188536	4.789072	-7.557128	0.770301	-2.552735	0.	0.	0.	-12.653108	-12.279084	-9.999380	3.522774	15.805798	-4.501526	6.585506	-3.570923	12.657601	0.	0.	0.	-0.000000	0.000001	-0.000002	3.392577	11.949628	4.124815	8.140087	-5.449669	1.503324	-2.845428	-14.948092	-6.268757	60.813736	-130.852020	69.604156	-5.939239	-5.015007	4.788764	-4.093596	-2.614706	-10.668114	-8.067064	-32.316887	8.751392	-67.769051	-126.172791	-77.977859	-6.393436	-4.705075	12.497540	-2.763945	3.739383	9.894386	-3.839290	-3.392009	0.590492	
0.037963	101.327564	0.002806	2.239063	2.912410	-43.307175	11.342817	-20.339933	12.986699	0.587351	18.192268	4.773824	-7.557133	0.764991	-2.531011	0.	0.	0.	-12.653108	-12.279084	-9.999380	3.522774	15.805798	-4.501526	6.585506	-3.570923	12.657601	0.	0.	0.	-0.000000	0.000001	-0.000002	3.399091	11.995938	4.128664	8.153544	-5.502669	1.529500	-2.837040	-15.024009	-6.285312	60.875031	-130.805786	69.586960	-6.002039	-5.006336	4.678173	-4.103448	-2.665943	-10.679241	-8.108923	-32.330093	8.727626	-67.759804	-126.163879	-77.941795	-6.402994	-4.714732	12.505536	-2.626281	4.104327	9.909505	-3.665378	-2.716473	-0.077101	
0.040550	101.327128	0.000569	2.239063	2.912410	-43.307175	11.341071	-20.350594	12.935369	0.574031	18.205994	4.797532	-7.557156	0.757870	-2.501899	0.	0.	0.	-12.653877	-12.283987	-10.000536	3.522470	15.810809	-4.500820	6.585506	-3.570923	12.657600	0.	0.	0.	-0.000000	0.000001	-0.000002	3.399206	12.053502	4.085458	8.196622	-5.572114	1.628302	-2.884862	-15.019040	-6.300898	60.916847	-130.819016	69.542290	-6.139694	-4.964014	4.557940	-4.105848	-2.726295	-10.640245	-8.155822	-32.312519	8.675695	-67.699326	-126.113800	-77.912605	-6.366369	-4.718602	12.545913	-2.491740	4.715814	9.933871	-3.177490	-1.706864	-1.199339	
0.026011	101.325141	0.007005	2.244854	2.915956	-43.308041	11.338748	-20.364426	12.901147	0.565793	18.208910	4.879238	-7.556863	0.768223	-2.545255	0.	0.	0.	-12.655842	-12.290503	-10.001428	3.527725	15.829449	-4.495541	6.581653	-3.590544	12.653104	0.	0.	0.	0.000000	-0.000000	0.000002	3.389539	12.066418	4.028210	8.201052	-5.623178	1.712692	-2.877610	-14.942166	-6.262488	60.905548	-130.880646	69.547829	-6.219048	-4.954864	4.554182	-4.096940	-2.750428	-10.581913	-8.203894	-32.230488	8.638906	-67.566818	-126.157295	-77.783005	-6.434696	-4.690404	12.519863	-2.456443	5.161235	9.925697	-2.768281	-0.936435	-1.897390	
0.026084	101.323068	0.002741	2.258414	2.923955	-43.303829	11.333455	-20.381702	12.891973	0.564496	18.207355	4.916330	-7.556671	0.775171	-2.574340	0.	0.	0.	-12.664530	-12.320415	-10.013530	3.530265	15.856087	-4.489153	6.578796	-3.601328	12.649302	0.	0.	0.	0.000000	0.000000	0.000001	3.383060	12.072246	3.989600	8.196583	-5.647810	1.760227	-2.873876	-14.896264	-6.258034	60.865768	-130.893890	69.531906	-6.244359	-4.941467	4.561432	-4.093908	-2.774234	-10.548348	-8.235006	-32.177280	8.614816	-67.467972	-126.095406	-77.699516	-6.383567	-4.686828	12.514415	-2.412524	5.389362	9.904119	-2.602212	-0.564048	-2.227938	
0.014856	101.321643	0.013676	2.294812	2.945306	-43.289837	11.316941	-20.439829	12.886486	0.571752	18.216057	4.969252	-7.556358	0.788474	-2.629939	0.	0.	0.	-12.681669	-12.356418	-10.038459	3.520884	15.875180	-4.550478	6.593424	-3.612199	12.714994	0.	0.	0.	-0.000000	0.000000	-0.000003	3.366343	12.081031	3.889723	8.195229	-5.725338	1.870408	-2.889530	-14.767163	-6.274701	60.769470	-130.888931	69.461922	-6.305538	-4.911280	4.583910	-4.085098	-2.844675	-10.470467	-8.303948	-32.043167	8.568977	-67.264626	-126.064392	-77.514107	-6.357220	-4.628391	12.501305	-2.281893	5.852372	9.784151	-2.329071	0.028551	-2.802149	
0.009246	101.320355	0.020765	2.305299	2.951786	-43.291409	11.314001	-20.459543	12.891479	0.575562	18.221291	4.992486	-7.556209	0.794385	-2.654695	0.	0.	0.	-12.685205	-12.368251	-10.040103	3.513654	15.885022	-4.593031	6.604004	-3.616279	12.760395	0.	0.	0.	-0.000000	-0.000000	0.000001	3.356709	12.074959	3.850850	8.189418	-5.770957	1.929419	-2.899418	-14.671921	-6.294410	60.736931	-130.871262	69.432808	-6.331920	-4.908706	4.594416	-4.076611	-2.875085	-10.438530	-8.335879	-31.959770	8.541605	-67.436058	-125.924141	-77.688919	-6.235798	-4.772826	12.522387	-2.223109	6.099191	9.690743	-2.173211	0.275609	-3.067843	
0.008527	101.318213	0.023470	2.327202	2.965363	-43.294701	11.305312	-20.507149	12.825375	0.562272	18.240538	5.100832	-7.556185	0.802279	-2.687029	0.	0.	0.	-12.692554	-12.404464	-9.992463	3.519873	15.902817	-4.687997	6.613789	-3.620390	12.804257	0.	0.	0.	-0.000000	0.000001	-0.000003	3.337229	12.152453	3.667392	8.165572	-6.132528	2.193901	-2.978496	-14.156232	-6.306000	60.738155	-130.843689	69.455780	-6.426991	-4.876295	4.541897	-4.091920	-3.221146	-10.312745	-8.410404	-31.493719	8.397952	-67.372925	-126.087860	-77.743767	-6.171147	-4.726360	12.502076	-2.181500	6.684023	9.509427	-1.610014	0.969241	-3.757452	
0.026798	101.306702	0.024939	2.314318	2.957165	-43.292767	11.300300	-20.524607	12.673439	0.514417	18.279116	5.283575	-7.543569	0.796865	-2.714055	0.	0.	0.	-12.695951	-12.445225	-9.958089	3.510964	15.991405	-4.698475	6.632363	-3.653263	12.785800	0.	0.	0.	-0.000000	0.000001	-0.000001	3.267835	12.584132	3.401544	8.195379	-6.845431	2.595968	-3.065229	-13.361182	-6.204072	60.698368	-130.962494	69.553955	-6.575458	-4.761254	4.436687	-4.033610	-3.817402	-10.122057	-8.577214	-30.970396	8.189137	-67.281136	-126.364174	-77.879128	-6.115161	-4.737489	12.436151	-2.365095	6.649202	9.660583	-0.762699	1.636701	-4.511184	
